<mxfile host="app.diagrams.net" modified="2024-01-20T18:51:40.993Z" agent="Mozilla/5.0 (X11; Linux x86_64; rv:109.0) Gecko/20100101 Firefox/115.0" etag="umXwoHrvpjueXyQtiNlq" version="22.1.21" type="device">
  <diagram name="Page-1" id="7e0a89b8-554c-2b80-1dc8-d5c74ca68de4">
    <mxGraphModel dx="1247" dy="660" grid="1" gridSize="10" guides="1" tooltips="1" connect="1" arrows="1" fold="1" page="1" pageScale="1" pageWidth="1100" pageHeight="850" background="none" math="0" shadow="0">
      <root>
        <mxCell id="0" />
        <mxCell id="1" parent="0" />
        <mxCell id="qvpBIrmDKc72IDKi6VH0-1" value="" style="html=1;shape=mxgraph.electrical.electro-mechanical.pushbutton;aspect=fixed;elSwitchState=off;" vertex="1" parent="1">
          <mxGeometry x="190" y="204.65999999999997" width="95" height="25.34" as="geometry" />
        </mxCell>
        <mxCell id="qvpBIrmDKc72IDKi6VH0-2" value="" style="pointerEvents=1;fillColor=strokeColor;verticalLabelPosition=bottom;shadow=0;dashed=0;align=center;html=1;verticalAlign=top;shape=mxgraph.electrical.diodes.diode;rotation=0;" vertex="1" parent="1">
          <mxGeometry x="293" y="200" width="66.67" height="40" as="geometry" />
        </mxCell>
        <mxCell id="qvpBIrmDKc72IDKi6VH0-8" value="" style="endArrow=none;html=1;rounded=0;entryX=0;entryY=0.5;entryDx=0;entryDy=0;entryPerimeter=0;exitX=1;exitY=0.8;exitDx=0;exitDy=0;" edge="1" parent="1" source="qvpBIrmDKc72IDKi6VH0-1" target="qvpBIrmDKc72IDKi6VH0-2">
          <mxGeometry width="50" height="50" relative="1" as="geometry">
            <mxPoint x="280" y="300" as="sourcePoint" />
            <mxPoint x="330" y="250" as="targetPoint" />
          </mxGeometry>
        </mxCell>
        <mxCell id="qvpBIrmDKc72IDKi6VH0-9" value="" style="endArrow=none;html=1;rounded=0;" edge="1" parent="1" source="qvpBIrmDKc72IDKi6VH0-90">
          <mxGeometry width="50" height="50" relative="1" as="geometry">
            <mxPoint x="120" y="160" as="sourcePoint" />
            <mxPoint x="670" y="160" as="targetPoint" />
          </mxGeometry>
        </mxCell>
        <mxCell id="qvpBIrmDKc72IDKi6VH0-10" value="" style="endArrow=none;html=1;rounded=0;exitX=0;exitY=0.8;exitDx=0;exitDy=0;" edge="1" parent="1" source="qvpBIrmDKc72IDKi6VH0-1">
          <mxGeometry width="50" height="50" relative="1" as="geometry">
            <mxPoint x="190" y="290" as="sourcePoint" />
            <mxPoint x="190" y="160" as="targetPoint" />
          </mxGeometry>
        </mxCell>
        <mxCell id="qvpBIrmDKc72IDKi6VH0-11" value="" style="endArrow=none;html=1;rounded=0;exitX=0.36;exitY=0.764;exitDx=0;exitDy=0;exitPerimeter=0;" edge="1" parent="1" source="qvpBIrmDKc72IDKi6VH0-37">
          <mxGeometry width="50" height="50" relative="1" as="geometry">
            <mxPoint x="360" y="700" as="sourcePoint" />
            <mxPoint x="360" y="60" as="targetPoint" />
          </mxGeometry>
        </mxCell>
        <mxCell id="qvpBIrmDKc72IDKi6VH0-14" value="" style="shape=waypoint;sketch=0;fillStyle=solid;size=6;pointerEvents=1;points=[];fillColor=none;resizable=0;rotatable=0;perimeter=centerPerimeter;snapToPoint=1;" vertex="1" parent="1">
          <mxGeometry x="350" y="210" width="20" height="20" as="geometry" />
        </mxCell>
        <mxCell id="qvpBIrmDKc72IDKi6VH0-28" value="" style="html=1;shape=mxgraph.electrical.electro-mechanical.pushbutton;aspect=fixed;elSwitchState=off;" vertex="1" parent="1">
          <mxGeometry x="190" y="324.65999999999997" width="95" height="25.34" as="geometry" />
        </mxCell>
        <mxCell id="qvpBIrmDKc72IDKi6VH0-29" value="" style="pointerEvents=1;fillColor=strokeColor;verticalLabelPosition=bottom;shadow=0;dashed=0;align=center;html=1;verticalAlign=top;shape=mxgraph.electrical.diodes.diode;rotation=0;" vertex="1" parent="1">
          <mxGeometry x="293" y="320" width="66.67" height="40" as="geometry" />
        </mxCell>
        <mxCell id="qvpBIrmDKc72IDKi6VH0-30" value="" style="endArrow=none;html=1;rounded=0;entryX=0;entryY=0.5;entryDx=0;entryDy=0;entryPerimeter=0;exitX=1;exitY=0.8;exitDx=0;exitDy=0;" edge="1" parent="1" source="qvpBIrmDKc72IDKi6VH0-28" target="qvpBIrmDKc72IDKi6VH0-29">
          <mxGeometry width="50" height="50" relative="1" as="geometry">
            <mxPoint x="280" y="420" as="sourcePoint" />
            <mxPoint x="330" y="370" as="targetPoint" />
          </mxGeometry>
        </mxCell>
        <mxCell id="qvpBIrmDKc72IDKi6VH0-31" value="" style="endArrow=none;html=1;rounded=0;exitX=0;exitY=0.8;exitDx=0;exitDy=0;" edge="1" parent="1" source="qvpBIrmDKc72IDKi6VH0-28">
          <mxGeometry width="50" height="50" relative="1" as="geometry">
            <mxPoint x="190" y="410" as="sourcePoint" />
            <mxPoint x="190" y="280" as="targetPoint" />
          </mxGeometry>
        </mxCell>
        <mxCell id="qvpBIrmDKc72IDKi6VH0-32" value="" style="shape=waypoint;sketch=0;fillStyle=solid;size=6;pointerEvents=1;points=[];fillColor=none;resizable=0;rotatable=0;perimeter=centerPerimeter;snapToPoint=1;" vertex="1" parent="1">
          <mxGeometry x="350" y="330" width="20" height="20" as="geometry" />
        </mxCell>
        <mxCell id="qvpBIrmDKc72IDKi6VH0-33" value="" style="html=1;shape=mxgraph.electrical.electro-mechanical.pushbutton;aspect=fixed;elSwitchState=off;" vertex="1" parent="1">
          <mxGeometry x="190" y="444.65999999999997" width="95" height="25.34" as="geometry" />
        </mxCell>
        <mxCell id="qvpBIrmDKc72IDKi6VH0-34" value="" style="pointerEvents=1;fillColor=strokeColor;verticalLabelPosition=bottom;shadow=0;dashed=0;align=center;html=1;verticalAlign=top;shape=mxgraph.electrical.diodes.diode;rotation=0;" vertex="1" parent="1">
          <mxGeometry x="293" y="440" width="66.67" height="40" as="geometry" />
        </mxCell>
        <mxCell id="qvpBIrmDKc72IDKi6VH0-35" value="" style="endArrow=none;html=1;rounded=0;entryX=0;entryY=0.5;entryDx=0;entryDy=0;entryPerimeter=0;exitX=1;exitY=0.8;exitDx=0;exitDy=0;" edge="1" parent="1" source="qvpBIrmDKc72IDKi6VH0-33" target="qvpBIrmDKc72IDKi6VH0-34">
          <mxGeometry width="50" height="50" relative="1" as="geometry">
            <mxPoint x="280" y="540" as="sourcePoint" />
            <mxPoint x="330" y="490" as="targetPoint" />
          </mxGeometry>
        </mxCell>
        <mxCell id="qvpBIrmDKc72IDKi6VH0-36" value="" style="endArrow=none;html=1;rounded=0;exitX=0;exitY=0.8;exitDx=0;exitDy=0;" edge="1" parent="1" source="qvpBIrmDKc72IDKi6VH0-33">
          <mxGeometry width="50" height="50" relative="1" as="geometry">
            <mxPoint x="190" y="530" as="sourcePoint" />
            <mxPoint x="190" y="400" as="targetPoint" />
          </mxGeometry>
        </mxCell>
        <mxCell id="qvpBIrmDKc72IDKi6VH0-37" value="" style="shape=waypoint;sketch=0;fillStyle=solid;size=6;pointerEvents=1;points=[];fillColor=none;resizable=0;rotatable=0;perimeter=centerPerimeter;snapToPoint=1;" vertex="1" parent="1">
          <mxGeometry x="350" y="450" width="20" height="20" as="geometry" />
        </mxCell>
        <mxCell id="qvpBIrmDKc72IDKi6VH0-43" value="" style="html=1;shape=mxgraph.electrical.electro-mechanical.pushbutton;aspect=fixed;elSwitchState=off;" vertex="1" parent="1">
          <mxGeometry x="430" y="204.65999999999997" width="95" height="25.34" as="geometry" />
        </mxCell>
        <mxCell id="qvpBIrmDKc72IDKi6VH0-44" value="" style="pointerEvents=1;fillColor=strokeColor;verticalLabelPosition=bottom;shadow=0;dashed=0;align=center;html=1;verticalAlign=top;shape=mxgraph.electrical.diodes.diode;rotation=0;" vertex="1" parent="1">
          <mxGeometry x="533" y="200" width="66.67" height="40" as="geometry" />
        </mxCell>
        <mxCell id="qvpBIrmDKc72IDKi6VH0-45" value="" style="endArrow=none;html=1;rounded=0;entryX=0;entryY=0.5;entryDx=0;entryDy=0;entryPerimeter=0;exitX=1;exitY=0.8;exitDx=0;exitDy=0;" edge="1" parent="1" source="qvpBIrmDKc72IDKi6VH0-43" target="qvpBIrmDKc72IDKi6VH0-44">
          <mxGeometry width="50" height="50" relative="1" as="geometry">
            <mxPoint x="520" y="300" as="sourcePoint" />
            <mxPoint x="570" y="250" as="targetPoint" />
          </mxGeometry>
        </mxCell>
        <mxCell id="qvpBIrmDKc72IDKi6VH0-46" value="" style="endArrow=none;html=1;rounded=0;exitX=0;exitY=0.8;exitDx=0;exitDy=0;" edge="1" parent="1" source="qvpBIrmDKc72IDKi6VH0-43">
          <mxGeometry width="50" height="50" relative="1" as="geometry">
            <mxPoint x="430" y="290" as="sourcePoint" />
            <mxPoint x="430" y="160" as="targetPoint" />
          </mxGeometry>
        </mxCell>
        <mxCell id="qvpBIrmDKc72IDKi6VH0-47" value="" style="shape=waypoint;sketch=0;fillStyle=solid;size=6;pointerEvents=1;points=[];fillColor=none;resizable=0;rotatable=0;perimeter=centerPerimeter;snapToPoint=1;" vertex="1" parent="1">
          <mxGeometry x="590" y="210" width="20" height="20" as="geometry" />
        </mxCell>
        <mxCell id="qvpBIrmDKc72IDKi6VH0-48" value="" style="html=1;shape=mxgraph.electrical.electro-mechanical.pushbutton;aspect=fixed;elSwitchState=off;" vertex="1" parent="1">
          <mxGeometry x="430" y="324.65999999999997" width="95" height="25.34" as="geometry" />
        </mxCell>
        <mxCell id="qvpBIrmDKc72IDKi6VH0-49" value="" style="pointerEvents=1;fillColor=strokeColor;verticalLabelPosition=bottom;shadow=0;dashed=0;align=center;html=1;verticalAlign=top;shape=mxgraph.electrical.diodes.diode;rotation=0;" vertex="1" parent="1">
          <mxGeometry x="533" y="320" width="66.67" height="40" as="geometry" />
        </mxCell>
        <mxCell id="qvpBIrmDKc72IDKi6VH0-50" value="" style="endArrow=none;html=1;rounded=0;entryX=0;entryY=0.5;entryDx=0;entryDy=0;entryPerimeter=0;exitX=1;exitY=0.8;exitDx=0;exitDy=0;" edge="1" parent="1" source="qvpBIrmDKc72IDKi6VH0-48" target="qvpBIrmDKc72IDKi6VH0-49">
          <mxGeometry width="50" height="50" relative="1" as="geometry">
            <mxPoint x="520" y="420" as="sourcePoint" />
            <mxPoint x="570" y="370" as="targetPoint" />
          </mxGeometry>
        </mxCell>
        <mxCell id="qvpBIrmDKc72IDKi6VH0-51" value="" style="endArrow=none;html=1;rounded=0;exitX=0;exitY=0.8;exitDx=0;exitDy=0;" edge="1" parent="1" source="qvpBIrmDKc72IDKi6VH0-48">
          <mxGeometry width="50" height="50" relative="1" as="geometry">
            <mxPoint x="430" y="410" as="sourcePoint" />
            <mxPoint x="430" y="280" as="targetPoint" />
          </mxGeometry>
        </mxCell>
        <mxCell id="qvpBIrmDKc72IDKi6VH0-52" value="" style="shape=waypoint;sketch=0;fillStyle=solid;size=6;pointerEvents=1;points=[];fillColor=none;resizable=0;rotatable=0;perimeter=centerPerimeter;snapToPoint=1;" vertex="1" parent="1">
          <mxGeometry x="590" y="330" width="20" height="20" as="geometry" />
        </mxCell>
        <mxCell id="qvpBIrmDKc72IDKi6VH0-53" value="" style="html=1;shape=mxgraph.electrical.electro-mechanical.pushbutton;aspect=fixed;elSwitchState=off;" vertex="1" parent="1">
          <mxGeometry x="430" y="444.65999999999997" width="95" height="25.34" as="geometry" />
        </mxCell>
        <mxCell id="qvpBIrmDKc72IDKi6VH0-54" value="" style="pointerEvents=1;fillColor=strokeColor;verticalLabelPosition=bottom;shadow=0;dashed=0;align=center;html=1;verticalAlign=top;shape=mxgraph.electrical.diodes.diode;rotation=0;" vertex="1" parent="1">
          <mxGeometry x="533" y="440" width="66.67" height="40" as="geometry" />
        </mxCell>
        <mxCell id="qvpBIrmDKc72IDKi6VH0-55" value="" style="endArrow=none;html=1;rounded=0;entryX=0;entryY=0.5;entryDx=0;entryDy=0;entryPerimeter=0;exitX=1;exitY=0.8;exitDx=0;exitDy=0;" edge="1" parent="1" source="qvpBIrmDKc72IDKi6VH0-53" target="qvpBIrmDKc72IDKi6VH0-54">
          <mxGeometry width="50" height="50" relative="1" as="geometry">
            <mxPoint x="520" y="540" as="sourcePoint" />
            <mxPoint x="570" y="490" as="targetPoint" />
          </mxGeometry>
        </mxCell>
        <mxCell id="qvpBIrmDKc72IDKi6VH0-56" value="" style="endArrow=none;html=1;rounded=0;exitX=0;exitY=0.8;exitDx=0;exitDy=0;" edge="1" parent="1" source="qvpBIrmDKc72IDKi6VH0-53">
          <mxGeometry width="50" height="50" relative="1" as="geometry">
            <mxPoint x="430" y="530" as="sourcePoint" />
            <mxPoint x="430" y="400" as="targetPoint" />
          </mxGeometry>
        </mxCell>
        <mxCell id="qvpBIrmDKc72IDKi6VH0-57" value="" style="shape=waypoint;sketch=0;fillStyle=solid;size=6;pointerEvents=1;points=[];fillColor=none;resizable=0;rotatable=0;perimeter=centerPerimeter;snapToPoint=1;" vertex="1" parent="1">
          <mxGeometry x="590" y="450" width="20" height="20" as="geometry" />
        </mxCell>
        <mxCell id="qvpBIrmDKc72IDKi6VH0-58" value="" style="endArrow=none;html=1;rounded=0;exitX=0.36;exitY=0.764;exitDx=0;exitDy=0;exitPerimeter=0;" edge="1" parent="1">
          <mxGeometry width="50" height="50" relative="1" as="geometry">
            <mxPoint x="599.67" y="460" as="sourcePoint" />
            <mxPoint x="599.67" y="60" as="targetPoint" />
          </mxGeometry>
        </mxCell>
        <mxCell id="qvpBIrmDKc72IDKi6VH0-59" value="" style="html=1;shape=mxgraph.electrical.electro-mechanical.pushbutton;aspect=fixed;elSwitchState=off;" vertex="1" parent="1">
          <mxGeometry x="670" y="204.65999999999997" width="95" height="25.34" as="geometry" />
        </mxCell>
        <mxCell id="qvpBIrmDKc72IDKi6VH0-60" value="" style="pointerEvents=1;fillColor=strokeColor;verticalLabelPosition=bottom;shadow=0;dashed=0;align=center;html=1;verticalAlign=top;shape=mxgraph.electrical.diodes.diode;rotation=0;" vertex="1" parent="1">
          <mxGeometry x="773" y="200" width="66.67" height="40" as="geometry" />
        </mxCell>
        <mxCell id="qvpBIrmDKc72IDKi6VH0-61" value="" style="endArrow=none;html=1;rounded=0;entryX=0;entryY=0.5;entryDx=0;entryDy=0;entryPerimeter=0;exitX=1;exitY=0.8;exitDx=0;exitDy=0;" edge="1" parent="1" source="qvpBIrmDKc72IDKi6VH0-59" target="qvpBIrmDKc72IDKi6VH0-60">
          <mxGeometry width="50" height="50" relative="1" as="geometry">
            <mxPoint x="760" y="300" as="sourcePoint" />
            <mxPoint x="810" y="250" as="targetPoint" />
          </mxGeometry>
        </mxCell>
        <mxCell id="qvpBIrmDKc72IDKi6VH0-62" value="" style="endArrow=none;html=1;rounded=0;exitX=0;exitY=0.8;exitDx=0;exitDy=0;" edge="1" parent="1" source="qvpBIrmDKc72IDKi6VH0-59">
          <mxGeometry width="50" height="50" relative="1" as="geometry">
            <mxPoint x="670" y="290" as="sourcePoint" />
            <mxPoint x="670" y="160" as="targetPoint" />
          </mxGeometry>
        </mxCell>
        <mxCell id="qvpBIrmDKc72IDKi6VH0-63" value="" style="shape=waypoint;sketch=0;fillStyle=solid;size=6;pointerEvents=1;points=[];fillColor=none;resizable=0;rotatable=0;perimeter=centerPerimeter;snapToPoint=1;" vertex="1" parent="1">
          <mxGeometry x="830" y="210" width="20" height="20" as="geometry" />
        </mxCell>
        <mxCell id="qvpBIrmDKc72IDKi6VH0-64" value="" style="html=1;shape=mxgraph.electrical.electro-mechanical.pushbutton;aspect=fixed;elSwitchState=off;" vertex="1" parent="1">
          <mxGeometry x="670" y="324.65999999999997" width="95" height="25.34" as="geometry" />
        </mxCell>
        <mxCell id="qvpBIrmDKc72IDKi6VH0-65" value="" style="pointerEvents=1;fillColor=strokeColor;verticalLabelPosition=bottom;shadow=0;dashed=0;align=center;html=1;verticalAlign=top;shape=mxgraph.electrical.diodes.diode;rotation=0;" vertex="1" parent="1">
          <mxGeometry x="773" y="320" width="66.67" height="40" as="geometry" />
        </mxCell>
        <mxCell id="qvpBIrmDKc72IDKi6VH0-66" value="" style="endArrow=none;html=1;rounded=0;entryX=0;entryY=0.5;entryDx=0;entryDy=0;entryPerimeter=0;exitX=1;exitY=0.8;exitDx=0;exitDy=0;" edge="1" parent="1" source="qvpBIrmDKc72IDKi6VH0-64" target="qvpBIrmDKc72IDKi6VH0-65">
          <mxGeometry width="50" height="50" relative="1" as="geometry">
            <mxPoint x="760" y="420" as="sourcePoint" />
            <mxPoint x="810" y="370" as="targetPoint" />
          </mxGeometry>
        </mxCell>
        <mxCell id="qvpBIrmDKc72IDKi6VH0-67" value="" style="endArrow=none;html=1;rounded=0;exitX=0;exitY=0.8;exitDx=0;exitDy=0;" edge="1" parent="1" source="qvpBIrmDKc72IDKi6VH0-64">
          <mxGeometry width="50" height="50" relative="1" as="geometry">
            <mxPoint x="670" y="410" as="sourcePoint" />
            <mxPoint x="670" y="280" as="targetPoint" />
          </mxGeometry>
        </mxCell>
        <mxCell id="qvpBIrmDKc72IDKi6VH0-68" value="" style="shape=waypoint;sketch=0;fillStyle=solid;size=6;pointerEvents=1;points=[];fillColor=none;resizable=0;rotatable=0;perimeter=centerPerimeter;snapToPoint=1;" vertex="1" parent="1">
          <mxGeometry x="830" y="330" width="20" height="20" as="geometry" />
        </mxCell>
        <mxCell id="qvpBIrmDKc72IDKi6VH0-69" value="" style="html=1;shape=mxgraph.electrical.electro-mechanical.pushbutton;aspect=fixed;elSwitchState=off;" vertex="1" parent="1">
          <mxGeometry x="670" y="444.65999999999997" width="95" height="25.34" as="geometry" />
        </mxCell>
        <mxCell id="qvpBIrmDKc72IDKi6VH0-70" value="" style="pointerEvents=1;fillColor=strokeColor;verticalLabelPosition=bottom;shadow=0;dashed=0;align=center;html=1;verticalAlign=top;shape=mxgraph.electrical.diodes.diode;rotation=0;" vertex="1" parent="1">
          <mxGeometry x="773" y="440" width="66.67" height="40" as="geometry" />
        </mxCell>
        <mxCell id="qvpBIrmDKc72IDKi6VH0-71" value="" style="endArrow=none;html=1;rounded=0;entryX=0;entryY=0.5;entryDx=0;entryDy=0;entryPerimeter=0;exitX=1;exitY=0.8;exitDx=0;exitDy=0;" edge="1" parent="1" source="qvpBIrmDKc72IDKi6VH0-69" target="qvpBIrmDKc72IDKi6VH0-70">
          <mxGeometry width="50" height="50" relative="1" as="geometry">
            <mxPoint x="760" y="540" as="sourcePoint" />
            <mxPoint x="810" y="490" as="targetPoint" />
          </mxGeometry>
        </mxCell>
        <mxCell id="qvpBIrmDKc72IDKi6VH0-72" value="" style="endArrow=none;html=1;rounded=0;exitDx=0;exitDy=0;" edge="1" parent="1" source="qvpBIrmDKc72IDKi6VH0-99">
          <mxGeometry width="50" height="50" relative="1" as="geometry">
            <mxPoint x="670" y="530" as="sourcePoint" />
            <mxPoint x="670" y="400" as="targetPoint" />
          </mxGeometry>
        </mxCell>
        <mxCell id="qvpBIrmDKc72IDKi6VH0-73" value="" style="shape=waypoint;sketch=0;fillStyle=solid;size=6;pointerEvents=1;points=[];fillColor=none;resizable=0;rotatable=0;perimeter=centerPerimeter;snapToPoint=1;" vertex="1" parent="1">
          <mxGeometry x="830" y="450" width="20" height="20" as="geometry" />
        </mxCell>
        <mxCell id="qvpBIrmDKc72IDKi6VH0-74" value="" style="endArrow=none;html=1;rounded=0;exitX=0.36;exitY=0.764;exitDx=0;exitDy=0;exitPerimeter=0;" edge="1" parent="1" source="qvpBIrmDKc72IDKi6VH0-84">
          <mxGeometry width="50" height="50" relative="1" as="geometry">
            <mxPoint x="839.6700000000001" y="460" as="sourcePoint" />
            <mxPoint x="839.6700000000001" y="60" as="targetPoint" />
          </mxGeometry>
        </mxCell>
        <mxCell id="qvpBIrmDKc72IDKi6VH0-75" value="" style="endArrow=none;html=1;rounded=0;" edge="1" parent="1" source="qvpBIrmDKc72IDKi6VH0-92">
          <mxGeometry width="50" height="50" relative="1" as="geometry">
            <mxPoint x="120" y="280" as="sourcePoint" />
            <mxPoint x="670" y="280" as="targetPoint" />
          </mxGeometry>
        </mxCell>
        <mxCell id="qvpBIrmDKc72IDKi6VH0-76" value="" style="endArrow=none;html=1;rounded=0;" edge="1" parent="1" source="qvpBIrmDKc72IDKi6VH0-97">
          <mxGeometry width="50" height="50" relative="1" as="geometry">
            <mxPoint x="120" y="400" as="sourcePoint" />
            <mxPoint x="670" y="400" as="targetPoint" />
          </mxGeometry>
        </mxCell>
        <mxCell id="qvpBIrmDKc72IDKi6VH0-79" value="gpio 1" style="rounded=1;whiteSpace=wrap;html=1;" vertex="1" parent="1">
          <mxGeometry x="40" y="150" width="80" height="20" as="geometry" />
        </mxCell>
        <mxCell id="qvpBIrmDKc72IDKi6VH0-80" value="gpio 2" style="rounded=1;whiteSpace=wrap;html=1;" vertex="1" parent="1">
          <mxGeometry x="40" y="270" width="80" height="20" as="geometry" />
        </mxCell>
        <mxCell id="qvpBIrmDKc72IDKi6VH0-81" value="gpio 3" style="rounded=1;whiteSpace=wrap;html=1;" vertex="1" parent="1">
          <mxGeometry x="40" y="390" width="80" height="20" as="geometry" />
        </mxCell>
        <mxCell id="qvpBIrmDKc72IDKi6VH0-82" value="gpio 4" style="rounded=1;whiteSpace=wrap;html=1;" vertex="1" parent="1">
          <mxGeometry x="320" y="40" width="80" height="20" as="geometry" />
        </mxCell>
        <mxCell id="qvpBIrmDKc72IDKi6VH0-83" value="gpio 5" style="rounded=1;whiteSpace=wrap;html=1;" vertex="1" parent="1">
          <mxGeometry x="560" y="40" width="80" height="20" as="geometry" />
        </mxCell>
        <mxCell id="qvpBIrmDKc72IDKi6VH0-85" value="" style="endArrow=none;html=1;rounded=0;exitX=0.36;exitY=0.764;exitDx=0;exitDy=0;exitPerimeter=0;" edge="1" parent="1" target="qvpBIrmDKc72IDKi6VH0-84">
          <mxGeometry width="50" height="50" relative="1" as="geometry">
            <mxPoint x="839.6700000000001" y="460" as="sourcePoint" />
            <mxPoint x="839.6700000000001" y="60" as="targetPoint" />
          </mxGeometry>
        </mxCell>
        <mxCell id="qvpBIrmDKc72IDKi6VH0-84" value="&lt;div&gt;gpio 6&lt;/div&gt;" style="rounded=1;whiteSpace=wrap;html=1;" vertex="1" parent="1">
          <mxGeometry x="800" y="40" width="80" height="20" as="geometry" />
        </mxCell>
        <mxCell id="qvpBIrmDKc72IDKi6VH0-87" value="" style="endArrow=none;html=1;rounded=0;" edge="1" parent="1" target="qvpBIrmDKc72IDKi6VH0-86">
          <mxGeometry width="50" height="50" relative="1" as="geometry">
            <mxPoint x="120" y="160" as="sourcePoint" />
            <mxPoint x="670" y="160" as="targetPoint" />
          </mxGeometry>
        </mxCell>
        <mxCell id="qvpBIrmDKc72IDKi6VH0-86" value="" style="shape=waypoint;sketch=0;fillStyle=solid;size=6;pointerEvents=1;points=[];fillColor=none;resizable=0;rotatable=0;perimeter=centerPerimeter;snapToPoint=1;" vertex="1" parent="1">
          <mxGeometry x="180" y="150" width="20" height="20" as="geometry" />
        </mxCell>
        <mxCell id="qvpBIrmDKc72IDKi6VH0-89" value="" style="endArrow=none;html=1;rounded=0;" edge="1" parent="1" source="qvpBIrmDKc72IDKi6VH0-86" target="qvpBIrmDKc72IDKi6VH0-88">
          <mxGeometry width="50" height="50" relative="1" as="geometry">
            <mxPoint x="190" y="160" as="sourcePoint" />
            <mxPoint x="670" y="160" as="targetPoint" />
          </mxGeometry>
        </mxCell>
        <mxCell id="qvpBIrmDKc72IDKi6VH0-88" value="" style="shape=waypoint;sketch=0;fillStyle=solid;size=6;pointerEvents=1;points=[];fillColor=none;resizable=0;rotatable=0;perimeter=centerPerimeter;snapToPoint=1;" vertex="1" parent="1">
          <mxGeometry x="420" y="150" width="20" height="20" as="geometry" />
        </mxCell>
        <mxCell id="qvpBIrmDKc72IDKi6VH0-91" value="" style="endArrow=none;html=1;rounded=0;" edge="1" parent="1" source="qvpBIrmDKc72IDKi6VH0-88" target="qvpBIrmDKc72IDKi6VH0-90">
          <mxGeometry width="50" height="50" relative="1" as="geometry">
            <mxPoint x="430" y="160" as="sourcePoint" />
            <mxPoint x="670" y="160" as="targetPoint" />
          </mxGeometry>
        </mxCell>
        <mxCell id="qvpBIrmDKc72IDKi6VH0-90" value="" style="shape=waypoint;sketch=0;fillStyle=solid;size=6;pointerEvents=1;points=[];fillColor=none;resizable=0;rotatable=0;perimeter=centerPerimeter;snapToPoint=1;" vertex="1" parent="1">
          <mxGeometry x="660" y="150" width="20" height="20" as="geometry" />
        </mxCell>
        <mxCell id="qvpBIrmDKc72IDKi6VH0-93" value="" style="endArrow=none;html=1;rounded=0;" edge="1" parent="1" target="qvpBIrmDKc72IDKi6VH0-92">
          <mxGeometry width="50" height="50" relative="1" as="geometry">
            <mxPoint x="120" y="280" as="sourcePoint" />
            <mxPoint x="670" y="280" as="targetPoint" />
          </mxGeometry>
        </mxCell>
        <mxCell id="qvpBIrmDKc72IDKi6VH0-92" value="" style="shape=waypoint;sketch=0;fillStyle=solid;size=6;pointerEvents=1;points=[];fillColor=none;resizable=0;rotatable=0;perimeter=centerPerimeter;snapToPoint=1;" vertex="1" parent="1">
          <mxGeometry x="180" y="270" width="20" height="20" as="geometry" />
        </mxCell>
        <mxCell id="qvpBIrmDKc72IDKi6VH0-94" value="" style="shape=waypoint;sketch=0;fillStyle=solid;size=6;pointerEvents=1;points=[];fillColor=none;resizable=0;rotatable=0;perimeter=centerPerimeter;snapToPoint=1;" vertex="1" parent="1">
          <mxGeometry x="420" y="270" width="20" height="20" as="geometry" />
        </mxCell>
        <mxCell id="qvpBIrmDKc72IDKi6VH0-95" value="" style="shape=waypoint;sketch=0;fillStyle=solid;size=6;pointerEvents=1;points=[];fillColor=none;resizable=0;rotatable=0;perimeter=centerPerimeter;snapToPoint=1;" vertex="1" parent="1">
          <mxGeometry x="660" y="270" width="20" height="20" as="geometry" />
        </mxCell>
        <mxCell id="qvpBIrmDKc72IDKi6VH0-96" value="" style="shape=waypoint;sketch=0;fillStyle=solid;size=6;pointerEvents=1;points=[];fillColor=none;resizable=0;rotatable=0;perimeter=centerPerimeter;snapToPoint=1;" vertex="1" parent="1">
          <mxGeometry x="180" y="390" width="20" height="20" as="geometry" />
        </mxCell>
        <mxCell id="qvpBIrmDKc72IDKi6VH0-98" value="" style="endArrow=none;html=1;rounded=0;" edge="1" parent="1" target="qvpBIrmDKc72IDKi6VH0-97">
          <mxGeometry width="50" height="50" relative="1" as="geometry">
            <mxPoint x="120" y="400" as="sourcePoint" />
            <mxPoint x="670" y="400" as="targetPoint" />
          </mxGeometry>
        </mxCell>
        <mxCell id="qvpBIrmDKc72IDKi6VH0-97" value="" style="shape=waypoint;sketch=0;fillStyle=solid;size=6;pointerEvents=1;points=[];fillColor=none;resizable=0;rotatable=0;perimeter=centerPerimeter;snapToPoint=1;" vertex="1" parent="1">
          <mxGeometry x="420" y="390" width="20" height="20" as="geometry" />
        </mxCell>
        <mxCell id="qvpBIrmDKc72IDKi6VH0-100" value="" style="endArrow=none;html=1;rounded=0;exitX=0;exitY=0.8;exitDx=0;exitDy=0;" edge="1" parent="1" source="qvpBIrmDKc72IDKi6VH0-69" target="qvpBIrmDKc72IDKi6VH0-99">
          <mxGeometry width="50" height="50" relative="1" as="geometry">
            <mxPoint x="670" y="465" as="sourcePoint" />
            <mxPoint x="670" y="400" as="targetPoint" />
          </mxGeometry>
        </mxCell>
        <mxCell id="qvpBIrmDKc72IDKi6VH0-99" value="" style="shape=waypoint;sketch=0;fillStyle=solid;size=6;pointerEvents=1;points=[];fillColor=none;resizable=0;rotatable=0;perimeter=centerPerimeter;snapToPoint=1;" vertex="1" parent="1">
          <mxGeometry x="660" y="390" width="20" height="20" as="geometry" />
        </mxCell>
      </root>
    </mxGraphModel>
  </diagram>
</mxfile>
